<svg xmlns="http://www.w3.org/2000/svg" width="200" height="55" viewBox="0 0 200 55"><defs><style>.a{fill:#ff5b2a;}.b,.c{fill:#fff;}.b{font-size:16px;font-family:AcuminPro-Regular, Acumin Pro;}</style></defs><g transform="translate(-280 -6204)"><path class="a" d="M27.5,0h145a27.5,27.5,0,0,1,0,55H27.5a27.5,27.5,0,0,1,0-55Z" transform="translate(280 6204)"/><g transform="translate(-85.895 121)"><text class="b" transform="translate(460 6116)"><tspan x="0" y="0">Send</tspan></text><g transform="translate(-2034.105 1925)"><g transform="translate(2470 4180)"><path class="c" d="M1762.768,5240.68c-.089,0-1.643.592-1.643.592l-.289,3.4a.121.121,0,0,0,.2.1l2.588-2.264Z" transform="translate(-1755.353 -5233.117)"/><path class="c" d="M1268.794,4556.392c.57-2.49,1.857-8.334,2.415-10.874a.673.673,0,0,0-.9-.774l-13.547,5.111a.573.573,0,0,0,.036,1.085l3.5,1.064,7.976-5.145c.21-.134.414.094.241.259l-6.348,5.736,5.4,3.992A.783.783,0,0,0,1268.794,4556.392Z" transform="translate(-1256.396 -4544.699)"/></g></g></g></g></svg>