<svg xmlns="http://www.w3.org/2000/svg" width="67" height="67" viewBox="0 0 67 67"><defs><style>.a{fill:#fc5700;}.b{fill:none;stroke:#fff;stroke-linecap:round;stroke-linejoin:round;stroke-width:2px;}</style></defs><g transform="translate(0 -507)"><path class="a" d="M0,0H67V67H0Z" transform="translate(0 507)"/><g transform="translate(22.784 529)"><path class="b" d="M8.557,3H19.67a5.557,5.557,0,0,1,5.557,5.557V19.67a5.557,5.557,0,0,1-5.557,5.557H8.557A5.557,5.557,0,0,1,3,19.67V8.557A5.557,5.557,0,0,1,8.557,3Z" transform="translate(-3 -3)"/><path class="b" d="M20.907,15.728a4.445,4.445,0,1,1-3.745-3.745,4.445,4.445,0,0,1,3.745,3.745Z" transform="translate(-5.349 -5.315)"/><path class="b" d="M26.25,9.75h0" transform="translate(-9.025 -4.749)"/></g></g></svg>