<svg xmlns="http://www.w3.org/2000/svg" width="67" height="67" viewBox="0 0 67 67"><defs><style>.a{fill:#ffb53b;}.b{fill:#fff;}</style></defs><g transform="translate(0 -574)"><rect class="a" width="67" height="67" transform="translate(0 574)"/><path class="b" d="M4.342,19.4H.32V6.447H4.342ZM2.329,4.681A2.34,2.34,0,1,1,4.658,2.33,2.349,2.349,0,0,1,2.329,4.681ZM19.394,19.4H15.381v-6.3c0-1.5-.03-3.429-2.091-3.429-2.091,0-2.411,1.632-2.411,3.321V19.4H6.861V6.447h3.857V8.214h.056A4.226,4.226,0,0,1,14.58,6.123c4.07,0,4.818,2.68,4.818,6.161V19.4Z" transform="translate(24.329 597.999)"/></g></svg>