<svg xmlns="http://www.w3.org/2000/svg" width="17.528" height="17.528" viewBox="0 0 17.528 17.528"><defs><style>.a{fill:#ff5b2a;fill-rule:evenodd;}</style></defs><path class="a" d="M8.764,1.558a26.872,26.872,0,0,1,3.506.1,4.517,4.517,0,0,1,1.655.292A3.42,3.42,0,0,1,15.58,3.6a4.516,4.516,0,0,1,.292,1.655c0,.876.1,1.169.1,3.506a26.872,26.872,0,0,1-.1,3.506,4.516,4.516,0,0,1-.292,1.655,3.42,3.42,0,0,1-1.655,1.655,4.516,4.516,0,0,1-1.655.292c-.876,0-1.169.1-3.506.1a26.872,26.872,0,0,1-3.506-.1A4.516,4.516,0,0,1,3.6,15.58a3.42,3.42,0,0,1-1.655-1.655,4.516,4.516,0,0,1-.292-1.655c0-.876-.1-1.169-.1-3.506a26.872,26.872,0,0,1,.1-3.506A4.517,4.517,0,0,1,1.948,3.6a3.5,3.5,0,0,1,.682-.974A1.646,1.646,0,0,1,3.6,1.948a4.517,4.517,0,0,1,1.655-.292,26.872,26.872,0,0,1,3.506-.1M8.764,0a28.772,28.772,0,0,0-3.6.1,6.012,6.012,0,0,0-2.142.39,3.812,3.812,0,0,0-1.558.974A3.812,3.812,0,0,0,.487,3.019,4.437,4.437,0,0,0,.1,5.161a28.772,28.772,0,0,0-.1,3.6,28.772,28.772,0,0,0,.1,3.6,6.012,6.012,0,0,0,.39,2.142,3.812,3.812,0,0,0,.974,1.558,3.812,3.812,0,0,0,1.558.974,6.012,6.012,0,0,0,2.142.39,28.772,28.772,0,0,0,3.6.1,28.772,28.772,0,0,0,3.6-.1,6.012,6.012,0,0,0,2.142-.39,4.085,4.085,0,0,0,2.532-2.532,6.012,6.012,0,0,0,.39-2.142c0-.974.1-1.266.1-3.6a28.772,28.772,0,0,0-.1-3.6,6.012,6.012,0,0,0-.39-2.142,3.812,3.812,0,0,0-.974-1.558A3.812,3.812,0,0,0,14.509.487,6.012,6.012,0,0,0,12.367.1a28.772,28.772,0,0,0-3.6-.1m0,4.285A4.407,4.407,0,0,0,4.285,8.764,4.479,4.479,0,1,0,8.764,4.285m0,7.4A2.869,2.869,0,0,1,5.843,8.764,2.869,2.869,0,0,1,8.764,5.843a2.869,2.869,0,0,1,2.921,2.921,2.869,2.869,0,0,1-2.921,2.921m4.674-8.667A1.071,1.071,0,1,0,14.509,4.09a1.081,1.081,0,0,0-1.071-1.071"/></svg>