<svg xmlns="http://www.w3.org/2000/svg" width="32" height="23" viewBox="0 0 32 23"><defs><style>.a{fill:#656565;}</style></defs><path class="a" d="M123,36.82H101a5.015,5.015,0,0,0-5,5v13a5.015,5.015,0,0,0,5,5h22a5.015,5.015,0,0,0,5-5v-13A5.015,5.015,0,0,0,123,36.82Zm-22,2h22a2.963,2.963,0,0,1,1.08.21L111.742,49.469,99.591,39.188A2.961,2.961,0,0,1,101,38.82Zm-3,16v-13a2.989,2.989,0,0,1,.234-1.16l8.4,7.11L98.3,56.106A2.969,2.969,0,0,1,98,54.82Zm25,3H101a2.964,2.964,0,0,1-1.285-.3l8.454-8.454,2.927,2.477a1,1,0,0,0,1.292,0l3.209-2.716,8.792,8.636A2.952,2.952,0,0,1,123,57.82Zm3-3A2.985,2.985,0,0,1,125.756,56l-8.625-8.473,8.257-6.986a.982.982,0,0,0,.187-.237A2.971,2.971,0,0,1,126,41.82Z" transform="translate(-96 -36.82)"/></svg>