<svg xmlns="http://www.w3.org/2000/svg" width="23" height="32" viewBox="0 0 23 32"><defs><style>.a{fill:#656565;}</style></defs><g transform="translate(-292.5 -31.82)"><path class="a" d="M315.5,43.294a11.5,11.5,0,0,0-23,0,11.349,11.349,0,0,0,1.89,6.284h0l.054.079.02.029,3.231,4.8,2.684,3.971,1.056,1.563h0L304,63.82l2.568-3.8h0L308.8,56.71l1.273-1.885,0,0,.265-.392,0,0,3.209-4.76.02-.029.041-.061h0A11.354,11.354,0,0,0,315.5,43.294Zm-3.557,5.179-.04.063-.007.011-3.189,4.731-.039.058-.25.369-1.273,1.885L304.911,58.9,304,60.248l-.912-1.349-1.056-1.563-2.682-3.969L296.1,48.546c-.014-.024-.029-.048-.045-.071a9.374,9.374,0,0,1-1.558-5.181,9.5,9.5,0,0,1,19,0A9.362,9.362,0,0,1,311.943,48.473Z"/><path class="a" d="M304.04,36.215a6.195,6.195,0,1,0,6.2,6.195A6.206,6.206,0,0,0,304.04,36.215Zm0,10.389a4.195,4.195,0,1,1,4.2-4.194A4.2,4.2,0,0,1,304.04,46.6Z"/></g></svg>